<svg xmlns="http://www.w3.org/2000/svg" viewBox="0 0 180 113"><title>card_paypal_2</title><rect x="1" y="1.01" width="178" height="111" style="fill:#fff"/><path d="M178,2V111H2V2H178m2-2H0V113H180V0h0Z" transform="translate(0 0.01)" style="fill:#fff"/><path d="M137.29,43.89c-4.1,0-7.35,1.09-9.83,1.58l-0.76,6.24a26.76,26.76,0,0,1,8.4-1.78c3.25-.1,5.15.59,4.49,3.37-9.64,0-16.13,2-17.47,8.22-1.91,10.69,9.83,10.4,14.51,5.74l-0.57,2.57h8.59l3.72-17C149.89,45.57,143.31,43.79,137.29,43.89Zm0.57,17.42c-0.48,2.28-2.29,3.27-4.48,3.37-1.91.1-3.63-1.59-2.39-3.57,1-1.68,3.63-2.08,5.25-2.08h2.1c-0.19.8-.28,1.49-0.47,2.28h0Z" transform="translate(0 0.01)" style="fill:#107db0"/><polygon points="155.72 37.16 148.61 69.84 157.33 69.84 164.53 37.16 155.72 37.16 155.72 37.16 155.72 37.16" style="fill:#107db0"/><path d="M115.63,37.25h-16L92.55,69.82h9.28L104.24,59h6.6a13.1,13.1,0,0,0,13.3-10.69C125.77,40.72,120.22,37.25,115.63,37.25Zm-0.29,11.09a6,6,0,0,1-5.46,4.46h-4.3l1.91-8.91h4.59C114.48,43.89,115.91,45.87,115.34,48.34Z" transform="translate(0 0.01)" style="fill:#107db0"/><path d="M53.64,43.89c-4,0-7.26,1.09-9.62,1.58l-0.75,6.24a24.86,24.86,0,0,1,8.2-1.78c3.21-.1,5.09.59,4.53,3.37-9.52,0-15.93,2-17.25,8.22C36.86,72.21,48.46,71.92,53,67.26l-0.56,2.57H61l3.68-17C66.17,45.57,59.57,43.79,53.64,43.89ZM54.3,61.31c-0.47,2.28-2.36,3.27-4.53,3.37-1.89.1-3.49-1.59-2.26-3.57C48.45,59.43,51.09,59,52.6,59h2.17a19.69,19.69,0,0,0-.48,2.28h0Z" transform="translate(0 0.01)" style="fill:#1b557d"/><polygon points="68.4 44.36 76.98 44.36 78.37 59.53 86.76 44.36 95.61 44.36 75.23 80.67 65.64 80.67 71.91 69.99 68.4 44.36 68.4 44.36 68.4 44.36" style="fill:#1b557d"/><path d="M32.3,37.25h-16L9.2,69.82h9.4L20.9,59h6.71A13.09,13.09,0,0,0,40.85,48.34C42.46,40.72,37,37.25,32.3,37.25ZM32,48.34a5.86,5.86,0,0,1-5.37,4.46H22.22l2-8.91h4.6A3.3,3.3,0,0,1,32,48.34Z" transform="translate(0 0.01)" style="fill:#1b557d"/><path d="M166.41,41.38V37.53H165V37h3.46v0.52H167v3.85h-0.58v0Z" transform="translate(0 0.01)" style="fill:#1b557d"/><path d="M169,41.38V37h0.87l1,3.09,0.21,0.65,0.23-.7,1-3h0.78V41.4h-0.56V37.74l-1.27,3.66h-0.52l-1.26-3.72V41.4H169v0Z" transform="translate(0 0.01)" style="fill:#1b557d"/></svg>