<svg xmlns="http://www.w3.org/2000/svg" viewBox="0 0 156.7 60.23"><title>logo</title><path d="M6.67,11.87h5.77l7.21,21.69,7.27-21.69h5.76L37.9,43H32.17L28.84,23.33,22.23,43H17L10.47,23.33,7.1,43H1.28Z" transform="translate(-0.84 0.01)" style="fill:#fff"/><path d="M57.29,11.09a15.44,15.44,0,0,1,11.35,4.78,15.9,15.9,0,0,1,4.74,11.65A15.72,15.72,0,0,1,68.7,39a15.43,15.43,0,0,1-11.37,4.68A15.43,15.43,0,0,1,45.7,38.91a16.06,16.06,0,0,1-4.6-11.5A16.23,16.23,0,0,1,57.29,11.09Zm-0.06,5.79a9.76,9.76,0,0,0-7.26,3A10.45,10.45,0,0,0,47,27.51a10,10,0,0,0,3.7,8.21,10.16,10.16,0,0,0,6.6,2.35,9.64,9.64,0,0,0,7.17-3,10.34,10.34,0,0,0,3-7.5,10.39,10.39,0,0,0-3-7.51,9.73,9.73,0,0,0-7.28-3.18h0Z" transform="translate(-0.84 0.01)" style="fill:#fff"/><path d="M102.1,0a3.79,3.79,0,0,1,3.22,1.5,4.6,4.6,0,0,1,.91,2.88,15.23,15.23,0,0,1-2,6.91,25.19,25.19,0,0,1-4.44,6Q98,19,97,19a1.61,1.61,0,0,1-1.22-.66,1.58,1.58,0,0,1-.41-1.06q0-1.09,1.91-2.5a18,18,0,0,0,4.28-4.38Q104,7,103.95,4.59a2.1,2.1,0,0,0-.42-1.44,1.62,1.62,0,0,0-1.3-.43q-1.72,0-4.88,2.5a50.77,50.77,0,0,0-7.6,7.66A53.15,53.15,0,0,0,82,25q-2.75,6.19-2.75,10.57a5.4,5.4,0,0,0,1.22,3.57,4.08,4.08,0,0,0,3.28,1.66q3.38,0,8.51-5.25A44.63,44.63,0,0,0,96,30.91a22.72,22.72,0,0,0,1.85-2.75,1.34,1.34,0,0,1,1.09-.91,0.6,0.6,0,0,1,.69.66q0,1.41-3.5,6.32a29.41,29.41,0,0,1-6.41,6.69,12.75,12.75,0,0,1-7.44,2.91,6.29,6.29,0,0,1-5.66-3.28,9,9,0,0,1-1.29-4.83q0-6.75,6.38-17A63.36,63.36,0,0,1,93.17,4.6Q98.39,0,102.1,0Z" transform="translate(-0.84 0.01)" style="fill:#2ca5fa"/><path d="M109.9,35.05a23.58,23.58,0,0,1-2,3.07q-2,2.44-3.91,2.44A2.91,2.91,0,0,1,101.36,39a4.82,4.82,0,0,1-.59-2.44A16.78,16.78,0,0,1,103,28.87a20.22,20.22,0,0,1,5.84-7.15,7.47,7.47,0,0,1,4.3-1.64,3.1,3.1,0,0,1,2.19.81,2.2,2.2,0,0,1,.75,1.63,5.21,5.21,0,0,1-.53,1.91,2.09,2.09,0,0,1,.47,1.16,5.24,5.24,0,0,1-.87,2.16,24.09,24.09,0,0,0-1.81,4.06,13.54,13.54,0,0,0-1,4.32,3,3,0,0,0,.78,2.16,6,6,0,0,0,1.28.72,1.34,1.34,0,0,1,.78,1.31,1.22,1.22,0,0,1-.44,1,1.62,1.62,0,0,1-1.09.41,3.65,3.65,0,0,1-2.91-1.5,4.67,4.67,0,0,1-1-3.06Q109.77,36.49,109.9,35.05Zm3.91-10.33a3.11,3.11,0,0,0-.81-1,1.54,1.54,0,0,0-.9-0.3q-2.38,0-5.16,4.16-3.06,4.6-3.06,7.79a2,2,0,0,0,.3,1.19,1,1,0,0,0,.89.41q1.5,0,3.5-3.19a52.65,52.65,0,0,0,2.78-5.16,27.22,27.22,0,0,1,1.55-2.9A4.56,4.56,0,0,1,113.81,24.72Z" transform="translate(-0.84 0.01)" style="fill:#2ca5fa"/><path d="M123,29.93A61.1,61.1,0,0,1,130,23.52a29.4,29.4,0,0,1,3.06-2.1,3.21,3.21,0,0,1,1-.47,1.26,1.26,0,0,1,.94.69,1.19,1.19,0,0,1,.28.69,2.63,2.63,0,0,1-1.19,1.53q-3.19,2.53-3.19,3.81a0.68,0.68,0,0,0,.62.73h0.19q1.34,0,4.63-2.22a1.82,1.82,0,0,1,.94-0.38,0.72,0.72,0,0,1,.5.25,0.84,0.84,0,0,1,.28.59q0,0.94-2.63,2.88a8.84,8.84,0,0,1-5.22,2.06,3.4,3.4,0,0,1-1.84-.53,1.68,1.68,0,0,1-.72-1.56,3.36,3.36,0,0,1,.66-1.78,30.9,30.9,0,0,0-5.82,6,43.41,43.41,0,0,0-3.85,6.47,2.1,2.1,0,0,1-1.78,1.44,1,1,0,0,1-1.16-1.1q0-1.06,1.81-5.69a43.26,43.26,0,0,1,5.63-10.66q1.81-2.35,3-2.35a1.25,1.25,0,0,1,.75.25,1,1,0,0,1,.41.78,2.57,2.57,0,0,1-.63,1.31l-1.61,2.12A16.51,16.51,0,0,0,123,29.93Z" transform="translate(-0.84 0.01)" style="fill:#2ca5fa"/><path d="M148.3,20.08a51,51,0,0,0-3.75,7.07q-2.45,5.57-2.45,8.31a1.86,1.86,0,0,0,.33,1.19,1.19,1.19,0,0,0,1,.41q1.56,0,3.78-2.94a38,38,0,0,0,2.5-3.63,1.64,1.64,0,0,1,1.28-1,0.94,0.94,0,0,1,.69.28,0.85,0.85,0,0,1,.25.56q0,1.16-3,5.16-3.63,4.81-6.63,4.82a3.18,3.18,0,0,1-2.66-1.47,4.6,4.6,0,0,1-.66-2.66,22.66,22.66,0,0,1,2.12-8.85q0.53-1.25,2.94-6a5.59,5.59,0,0,1-1.28.22,2.14,2.14,0,0,1-1.16-.31,1.28,1.28,0,0,1-.69-1.09,1.41,1.41,0,0,1,.91-1.25,14.69,14.69,0,0,1,2.31-.41,16.46,16.46,0,0,0,2.19-.59,55.1,55.1,0,0,1,3.56-5.35q1.38-1.88,1.91-2.44a2,2,0,0,1,1.31-.82,1.14,1.14,0,0,1,.81.44,1.21,1.21,0,0,1,.38.81q0,0.81-1.75,3.22a29.5,29.5,0,0,0-1.72,2.53,22.08,22.08,0,0,1,5-.94q1.72,0,1.72,1.44a1.15,1.15,0,0,1-.59,1.06,5,5,0,0,1-1.63.31,31.3,31.3,0,0,0-4.72,1.19Z" transform="translate(-0.84 0.01)" style="fill:#2ca5fa"/><circle cx="56.26" cy="27.23" r="5.5" style="fill:#2ca5fa"/><path d="M0.84,52.13h1.5a4.68,4.68,0,0,1,1.76.24,1.82,1.82,0,0,1,.85.77,2.5,2.5,0,0,1,.31,1.28,2.24,2.24,0,0,1-.41,1.38,2.11,2.11,0,0,1-1.11.76,6,6,0,0,1-1.49.12V60H0.84v-7.9Zm1.42,3.09H2.71a2.31,2.31,0,0,0,.74-0.08,0.66,0.66,0,0,0,.33-0.27,0.82,0.82,0,0,0,.12-0.45,0.73,0.73,0,0,0-.33-0.67,1.8,1.8,0,0,0-.9-0.16H2.26v1.62Z" transform="translate(-0.84 0.01)" style="fill:#fff"/><path d="M10.27,51.93A3.59,3.59,0,0,1,13,53.14a4.17,4.17,0,0,1,1.14,3A4.13,4.13,0,0,1,13,59a3.59,3.59,0,0,1-2.72,1.2A3.59,3.59,0,0,1,7.49,59a4.22,4.22,0,0,1-1.11-2.92A4.29,4.29,0,0,1,6.9,54a4,4,0,0,1,1.42-1.51A3.65,3.65,0,0,1,10.27,51.93Zm0,1.47a2.27,2.27,0,0,0-1.74.76,2.75,2.75,0,0,0-.7,1.94,2.59,2.59,0,0,0,.89,2.07,2.34,2.34,0,0,0,1.58.6A2.24,2.24,0,0,0,12,58a2.91,2.91,0,0,0,0-3.82A2.27,2.27,0,0,0,10.25,53.4Z" transform="translate(-0.84 0.01)" style="fill:#fff"/><path d="M15,52.13h1.39l1.07,5,1.33-5H20l1.35,5,1.06-5h1.39L22.1,60H20.74l-1.37-5.11L18,60H16.68Z" transform="translate(-0.84 0.01)" style="fill:#fff"/><path d="M25,52.13h4.06V53.6H26.39V55h2.66v1.44H26.39v2.08h2.66V60H25v-7.9Z" transform="translate(-0.84 0.01)" style="fill:#fff"/><path d="M30.57,52.13h1.5a4.68,4.68,0,0,1,1.76.23,1.83,1.83,0,0,1,.84.78A2.49,2.49,0,0,1,35,54.42a2.29,2.29,0,0,1-.35,1.3,2.14,2.14,0,0,1-1.06.79L35.34,60H33.79l-1.67-3.35H32V60H30.57v-7.9ZM32,55.22h0.44A1.65,1.65,0,0,0,33.36,55a0.73,0.73,0,0,0,.25-0.62A0.8,0.8,0,0,0,33.49,54a0.7,0.7,0,0,0-.34-0.27,2.42,2.42,0,0,0-.78-0.08H32v1.62Z" transform="translate(-0.84 0.01)" style="fill:#fff"/><path d="M36.59,52.13h4.06V53.6H38V55h2.66v1.44H38v2.08h2.66V60H36.59v-7.9Z" transform="translate(-0.84 0.01)" style="fill:#fff"/><path d="M42.08,52.13h1.68a5.24,5.24,0,0,1,2.41.43,3.24,3.24,0,0,1,1.3,1.39,5.14,5.14,0,0,1,.22,3.92,3.51,3.51,0,0,1-.79,1.27,2.75,2.75,0,0,1-1.09.7,7.32,7.32,0,0,1-2,.19h-1.7v-7.9Zm1.41,1.45v5h0.66a3.12,3.12,0,0,0,1.41-.24,1.75,1.75,0,0,0,.72-0.8,3.07,3.07,0,0,0,.28-1.38,2.71,2.71,0,0,0-.66-2A2.55,2.55,0,0,0,44,53.58H43.49Z" transform="translate(-0.84 0.01)" style="fill:#fff"/><path d="M52.44,60v-7.9h1.17a5.74,5.74,0,0,1,1.49.14,2,2,0,0,1,1.06.7,1.9,1.9,0,0,1,.4,1.2,1.84,1.84,0,0,1-.18.82,2.05,2.05,0,0,1-.58.69,2.37,2.37,0,0,1,1,.85,2.24,2.24,0,0,1,.31,1.2,2.34,2.34,0,0,1-.32,1.21,2.12,2.12,0,0,1-.84.82,3,3,0,0,1-1.41.27H52.44Zm1.42-6.47v1.67h0.31A1.1,1.1,0,0,0,54.93,55a0.81,0.81,0,0,0,.25-0.63,0.76,0.76,0,0,0-.24-0.59,1,1,0,0,0-.73-0.22H53.85Zm0,3v2h0.35a2.09,2.09,0,0,0,1.19-.24,0.82,0.82,0,0,0,.31-0.69,1,1,0,0,0-.36-0.81,1.9,1.9,0,0,0-1.2-.29H53.85Z" transform="translate(-0.84 0.01)" style="fill:#fff"/><path d="M58,52.13h1.52L60.93,55l1.38-2.84h1.5l-2.18,4.48V60H60.21V56.61Z" transform="translate(-0.84 0.01)" style="fill:#fff"/><path d="M68.07,52.13h1.5a4.68,4.68,0,0,1,1.76.24,1.82,1.82,0,0,1,.85.77,2.5,2.5,0,0,1,.31,1.28,2.24,2.24,0,0,1-.41,1.38,2.11,2.11,0,0,1-1.11.76,6,6,0,0,1-1.49.12V60H68.07v-7.9Zm1.42,3.09h0.45a2.31,2.31,0,0,0,.74-0.08A0.66,0.66,0,0,0,71,54.87a0.82,0.82,0,0,0,.12-0.45,0.73,0.73,0,0,0-.33-0.67,1.8,1.8,0,0,0-.9-0.16h-0.4v1.62Z" transform="translate(-0.84 0.01)" style="fill:#ffd200"/><path d="M77.89,53.2l-1,1a1.49,1.49,0,0,0-1.12-.82,0.66,0.66,0,0,0-.46.16,0.47,0.47,0,0,0-.18.36,0.64,0.64,0,0,0,.13.38,9.84,9.84,0,0,0,1,1q0.81,0.72,1,.91a3.13,3.13,0,0,1,.61.88A2.32,2.32,0,0,1,78,58a2.18,2.18,0,0,1-.63,1.61,2.23,2.23,0,0,1-1.65.63,2.35,2.35,0,0,1-1.38-.41,3.22,3.22,0,0,1-1-1.3l1.19-.76a1.53,1.53,0,0,0,1.24,1,0.88,0.88,0,0,0,.61-0.22,0.69,0.69,0,0,0,.25-0.52,0.93,0.93,0,0,0-.19-0.54,5.6,5.6,0,0,0-.83-0.82A8.59,8.59,0,0,1,74,55.07a2.15,2.15,0,0,1-.35-1.14,1.92,1.92,0,0,1,.59-1.41,2,2,0,0,1,1.46-.59,2.2,2.2,0,0,1,1.06.27A3.94,3.94,0,0,1,77.89,53.2Z" transform="translate(-0.84 0.01)" style="fill:#ffd200"/><path d="M79.48,52.13h1.68a5.24,5.24,0,0,1,2.41.43,3.25,3.25,0,0,1,1.3,1.39,5.14,5.14,0,0,1,.22,3.92,3.51,3.51,0,0,1-.79,1.27,2.76,2.76,0,0,1-1.09.7,7.33,7.33,0,0,1-2,.19h-1.7v-7.9Zm1.41,1.45v5h0.66A3.12,3.12,0,0,0,83,58.33a1.74,1.74,0,0,0,.72-0.8,3.07,3.07,0,0,0,.28-1.38,2.71,2.71,0,0,0-.66-2,2.55,2.55,0,0,0-1.92-.62H80.88Z" transform="translate(-0.84 0.01)" style="fill:#ffd200"/><path d="M86.85,52.13h3.69V53.6H88.26V55h2.29v1.44H88.26V60H86.85v-7.9Z" transform="translate(-0.84 0.01)" style="fill:#ffd200"/><path d="M92,52.13h1.5a4.68,4.68,0,0,1,1.76.23,1.83,1.83,0,0,1,.84.78,2.49,2.49,0,0,1,.32,1.28,2.29,2.29,0,0,1-.35,1.3,2.14,2.14,0,0,1-1.06.79L96.77,60H95.22l-1.67-3.35H93.42V60H92v-7.9Zm1.42,3.09h0.44A1.65,1.65,0,0,0,94.79,55,0.73,0.73,0,0,0,95,54.4,0.8,0.8,0,0,0,94.92,54a0.7,0.7,0,0,0-.34-0.27,2.41,2.41,0,0,0-.78-0.08H93.42v1.62Z" transform="translate(-0.84 0.01)" style="fill:#ffd200"/><path d="M98,52.13h4.06V53.6H99.43V55h2.66v1.44H99.43v2.08h2.66V60H98v-7.9Z" transform="translate(-0.84 0.01)" style="fill:#ffd200"/><path d="M103.51,52.13h4.06V53.6h-2.66V55h2.66v1.44h-2.66v2.08h2.66V60h-4.06v-7.9Z" transform="translate(-0.84 0.01)" style="fill:#ffd200"/><path d="M109,60v-7.9h1.17a5.75,5.75,0,0,1,1.49.14,2,2,0,0,1,1.06.7,1.91,1.91,0,0,1,.39,1.2,1.83,1.83,0,0,1-.18.82,2,2,0,0,1-.58.69,2.36,2.36,0,0,1,1,.85,2.24,2.24,0,0,1,.31,1.2,2.34,2.34,0,0,1-.32,1.21,2.12,2.12,0,0,1-.83.82,3,3,0,0,1-1.41.27H109Zm1.42-6.47v1.67h0.31a1.1,1.1,0,0,0,.77-0.23,0.81,0.81,0,0,0,.25-0.63,0.76,0.76,0,0,0-.24-0.59,1,1,0,0,0-.73-0.22h-0.37Zm0,3v2h0.36a2.09,2.09,0,0,0,1.19-.24,0.82,0.82,0,0,0,.31-0.69,1,1,0,0,0-.36-0.81,1.9,1.9,0,0,0-1.2-.29h-0.29Z" transform="translate(-0.84 0.01)" style="fill:#ffd200"/><path d="M115,52.13h1.41V60H115v-7.9Z" transform="translate(-0.84 0.01)" style="fill:#ffd200"/><path d="M118.12,52.13h4.06V53.6h-2.66V55h2.66v1.44h-2.66v2.08h2.66V60h-4.06v-7.9Z" transform="translate(-0.84 0.01)" style="fill:#ffd200"/><path d="M127.51,53.2l-1,1a1.49,1.49,0,0,0-1.12-.82,0.66,0.66,0,0,0-.46.16,0.47,0.47,0,0,0-.18.36,0.63,0.63,0,0,0,.13.38,9.81,9.81,0,0,0,1,1q0.81,0.72,1,.91a3.14,3.14,0,0,1,.61.88,2.32,2.32,0,0,1,.18.92,2.18,2.18,0,0,1-.63,1.61,2.23,2.23,0,0,1-1.65.63,2.35,2.35,0,0,1-1.38-.41,3.23,3.23,0,0,1-1-1.3l1.19-.76a1.53,1.53,0,0,0,1.24,1,0.88,0.88,0,0,0,.61-0.22,0.69,0.69,0,0,0,.25-0.52,0.93,0.93,0,0,0-.19-0.54,5.59,5.59,0,0,0-.83-0.82,8.59,8.59,0,0,1-1.57-1.62,2.15,2.15,0,0,1-.35-1.14,1.92,1.92,0,0,1,.59-1.41,2,2,0,0,1,1.46-.59,2.2,2.2,0,0,1,1.06.27A3.94,3.94,0,0,1,127.51,53.2Z" transform="translate(-0.84 0.01)" style="fill:#ffd200"/><path d="M129.69,58.5a0.75,0.75,0,0,1,.56.25,0.83,0.83,0,0,1,.23.59,0.84,0.84,0,0,1-.23.6,0.76,0.76,0,0,1-1.12,0,0.84,0.84,0,0,1-.23-0.6,0.83,0.83,0,0,1,.23-0.59A0.74,0.74,0,0,1,129.69,58.5Z" transform="translate(-0.84 0.01)" style="fill:#ffd200"/><path d="M138.93,53.52l-1,1a3,3,0,0,0-2.27-1.13,2.38,2.38,0,0,0-1.8.77,2.68,2.68,0,0,0-.73,1.91,3,3,0,0,0,.32,1.4,2.39,2.39,0,0,0,.92,1,2.53,2.53,0,0,0,1.31.35,2.56,2.56,0,0,0,1.13-.25,4,4,0,0,0,1.12-.89l1,1.06a5.28,5.28,0,0,1-1.56,1.18,4,4,0,0,1-1.67.33,3.73,3.73,0,0,1-2.84-1.17,4.18,4.18,0,0,1-1.11-3,4.31,4.31,0,0,1,.5-2.1,4,4,0,0,1,3.46-2,4,4,0,0,1,1.77.41A4.29,4.29,0,0,1,138.93,53.52Z" transform="translate(-0.84 0.01)" style="fill:#ffd200"/><path d="M143.79,51.93a3.59,3.59,0,0,1,2.72,1.21,4.17,4.17,0,0,1,1.14,3A4.12,4.12,0,0,1,146.52,59a3.73,3.73,0,0,1-5.5,0,4.22,4.22,0,0,1-1.11-2.92,4.29,4.29,0,0,1,.52-2.08,4,4,0,0,1,1.42-1.51A3.65,3.65,0,0,1,143.79,51.93Zm0,1.47a2.27,2.27,0,0,0-1.74.76,2.75,2.75,0,0,0-.7,1.94,2.59,2.59,0,0,0,.89,2.07,2.34,2.34,0,0,0,1.58.6,2.24,2.24,0,0,0,1.72-.77,2.91,2.91,0,0,0,0-3.82A2.27,2.27,0,0,0,143.77,53.4Z" transform="translate(-0.84 0.01)" style="fill:#ffd200"/><path d="M149.8,52.13h1.38l1.72,5.51,1.74-5.51H156l1.25,7.9H155.9l-0.8-5-1.58,5h-1.25l-1.57-5-0.82,5h-1.38Z" transform="translate(-0.84 0.01)" style="fill:#ffd200"/></svg>