<svg xmlns="http://www.w3.org/2000/svg" viewBox="0 0 512 313.4"><title>card_visa2</title><path d="M0,99.3V412.7H512V99.3H0Z" transform="translate(0 -99.3)" style="fill:#fff"/><path d="M404.8,203.7l12.3,104.5H388.8l-2-25.5H363.2l-11.7,25.5H322.3l50.9-104.5h31.6Zm-19.4,56.9-1.6-17.9c-0.1-2-.3-4.4-0.5-6.8-1.1,2.8-2.2,5.5-3.3,7.8l-7.8,16.9h13.2Z" transform="translate(0 -99.3)" style="fill:#16216a"/><path d="M383.7,242.7l1.6,17.9H372.1l7.8-16.9q1.65-3.6,3.3-7.8C383.4,238.4,383.6,240.7,383.7,242.7Z" transform="translate(0 -99.3)" style="fill:#fff"/><path d="M331.9,208.8l-8.7,23.3-3.1-1.7a35.64,35.64,0,0,0-16.3-4c-8.8,0-12.5,3.8-12.5,7.3,0,3.8,4.8,6.8,12.8,11.2,14.2,7.4,21.1,16.8,21.1,28.7,0,21.6-17.3,36.2-43,36.2-12.4,0-23.6-2.9-30-7.6l-1.9-1.4,9.2-22.7,3.1,1.8a43.54,43.54,0,0,0,21.7,5.9c5.8,0,12.6-2.3,12.6-8.5,0-3.3-1.9-6.1-11.6-11.2-10.3-5.6-22.1-13.9-22.1-28.8,0-20.6,17.2-35,41.9-35,10.1,0,18.2,1.8,24.7,5.4Z" transform="translate(0 -99.3)" style="fill:#16216a"/><polygon points="256 104.4 236.2 209 208.9 209 228.8 104.4 256 104.4" style="fill:#16216a"/><path d="M215.4,203.7L161.5,308.2h-29l-11.8-84.4,28.6,17.9-48.1-38.1h46.2l4.7,49.7c0.6,5.9,1.1,11.7,1.5,17.7,2.4-5.7,5.2-12,8.4-18.8l22.9-48.5h30.5Z" transform="translate(0 -99.3)" style="fill:#16216a"/></svg>