<svg xmlns="http://www.w3.org/2000/svg" viewBox="0 0 512 331.81"><title>discover-paying-card2</title><path d="M440,215.43a3.66,3.66,0,1,1,3.65,3.78A3.72,3.72,0,0,1,440,215.43Zm1.73,2.65H443v-2l1.49,2.06H446l-1.72-2.18a1.45,1.45,0,0,0,1.15-1.48c0-1.06-.73-1.64-2-1.64h-1.7v5.28h0ZM512,103.28V408.73a13.18,13.18,0,0,1-13.18,13.18H13.18A13.18,13.18,0,0,1,0,408.72V103.28A13.18,13.18,0,0,1,13.18,90.1H498.82A13.18,13.18,0,0,1,512,103.28ZM439,215.42a4.59,4.59,0,1,0,4.63-4.61A4.61,4.61,0,0,0,439,215.42Zm5.1-1c0-.45-0.32-0.68-0.94-0.68H443v1.38h0.21C443.79,215.14,444.13,214.92,444.13,214.45Z" transform="translate(0 -90.1)" style="fill:#fff"/><path d="M502.8,297.43V412.76H183.08C389.89,377.1,502.8,297.43,502.8,297.43Z" transform="translate(0 -90.1)" style="fill:#fe6542"/><path d="M424.68,246.87l19,25.37H429.2L413,248h-1.53v24.2H399.66V212h17.43c13.57,0,21.33,6.51,21.33,17.78C438.42,239,433.53,245.07,424.68,246.87Zm1.64-16.45c0-5.86-4-8.92-11.3-8.92h-3.6v18.24h3.42C422.35,239.74,426.32,236.48,426.32,230.42Z" transform="translate(0 -90.1)" style="fill:#231f20"/><path d="M415,221.5c7.33,0,11.3,3.06,11.3,8.92,0,6.06-4,9.32-11.48,9.32h-3.42V221.5H415Z" transform="translate(0 -90.1)" style="fill:#fff"/><polygon points="391.88 171.95 391.88 182.14 358.57 182.14 358.57 121.91 391.88 121.91 391.88 132.11 370.31 132.11 370.31 145.49 391.1 145.49 391.1 155.68 370.31 155.68 370.31 171.95 391.88 171.95" style="fill:#231f20"/><polygon points="353.25 121.91 327.22 183.68 320.93 183.68 295.37 121.91 308.21 121.91 324.26 162.36 340.53 121.91 353.25 121.91" style="fill:#231f20"/><path d="M231.13,214.37v13.82c-4.87-4.78-9.12-6.78-14.74-6.78-11,0-19.67,9.13-19.67,20.68,0,12.2,8.39,20.78,20.22,20.78,5.32,0,9.48-1.9,14.18-6.61v13.82a32.15,32.15,0,0,1-14.73,3.52c-17.89,0-31.79-13.73-31.79-31.42,0-17.52,14.27-31.52,32.08-31.51A30,30,0,0,1,231.13,214.37Z" transform="translate(0 -90.1)" style="fill:#231f20"/><path d="M178.84,217.7l-6.15,8.06c-3.06-3.44-6-4.89-9.47-4.89-5.07,0-8.77,2.89-8.77,6.68,0,3.24,2.08,5,9.14,7.58,13.34,4.88,17.31,9.21,17.31,18.78,0,11.66-8.56,19.78-20.77,19.8-8.93,0-15.42-3.52-20.84-11.47l7.59-7.32c2.7,5.23,7.23,8,12.82,8,5.24,0,9.12-3.62,9.12-8.5a7.2,7.2,0,0,0-3.53-6.24,46.68,46.68,0,0,0-8.12-3.42c-11-4-14.8-8.23-14.8-16.52,0-9.86,8.1-17.25,18.76-17.25A26.41,26.41,0,0,1,178.84,217.7Z" transform="translate(0 -90.1)" style="fill:#231f20"/><rect x="123.11" y="121.91" width="11.74" height="60.23" style="fill:#231f20"/><path d="M117.69,242.18a30.26,30.26,0,0,1-10.91,23.11c-5.79,4.81-12.38,7-21.48,7H68.14V212H85.37C104.41,212,117.69,224.4,117.69,242.18Zm-12.09-.1a20.28,20.28,0,0,0-6.52-15c-3.87-3.51-8.47-4.88-16-4.88H79.87v39.84H83c7.57,0,12.37-1.46,16-4.79A20.65,20.65,0,0,0,105.6,242.08Z" transform="translate(0 -90.1)" style="fill:#231f20"/><path d="M299,242.33a32,32,0,0,1-.65,6.47c-0.09.46-.24,0.93-0.34,1.4s-0.27,1.11-.46,1.67A32,32,0,1,1,299,242.33Z" transform="translate(0 -90.1)" style="fill:#fbb700"/></svg>